<?xml version="1.0" encoding="UTF-8" standalone="no"?>
<svg
   viewBox="0 0 245.18 78.46"
   version="1.1"
   id="svg8"
   sodipodi:docname="resin-white.svg"
   inkscape:version="1.3.2 (091e20e, 2023-11-25)"
   inkscape:export-filename="resin-white-p.svg"
   inkscape:export-xdpi="96"
   inkscape:export-ydpi="96"
   xmlns:inkscape="http://www.inkscape.org/namespaces/inkscape"
   xmlns:sodipodi="http://sodipodi.sourceforge.net/DTD/sodipodi-0.dtd"
   xmlns="http://www.w3.org/2000/svg"
   xmlns:svg="http://www.w3.org/2000/svg">
  <sodipodi:namedview
     id="namedview8"
     pagecolor="#ffffff"
     bordercolor="#000000"
     borderopacity="0.25"
     inkscape:showpageshadow="2"
     inkscape:pageopacity="0.0"
     inkscape:pagecheckerboard="0"
     inkscape:deskcolor="#d1d1d1"
     inkscape:zoom="1.7089486"
     inkscape:cx="134.00052"
     inkscape:cy="39.205392"
     inkscape:window-width="1392"
     inkscape:window-height="1027"
     inkscape:window-x="0"
     inkscape:window-y="25"
     inkscape:window-maximized="0"
     inkscape:current-layer="Laag_2" />
  <defs
     id="defs1">
    <style
       id="style1">.cls-1{fill:#303031;}.cls-2{fill:#f07e19;}</style>
  </defs>
  <g
     id="Laag_2"
     data-name="Laag 2">
    <g
       id="Laag_1-2"
       data-name="Laag 1">
      <path
         id="path2"
         style="fill:#ffffff"
         class="cls-1"
         d="m 187.24,41.41 a 23.31,23.31 0 0 0 -5.07,-3 q -1.35,-0.62 -2.43,-1.05 a 29,29 0 0 1 -3.59,-1.73 2.66,2.66 0 0 1 -1.45,-2.43 v -0.06 a 2.89,2.89 0 0 1 1.4,-2.42 5.7,5.7 0 0 1 3.11,-0.86 h 0.23 a 9.72,9.72 0 0 1 3.61,0.88 8.44,8.44 0 0 1 2.2,1.14 l 3.39,-6.3 a 9.65,9.65 0 0 0 -1.87,-1.37 14.56,14.56 0 0 0 -7.21,-2 h -0.44 a 14.92,14.92 0 0 0 -6.06,1.23 11.87,11.87 0 0 0 -4.84,3.65 9.11,9.11 0 0 0 -1.9,5.44 V 33 a 8.77,8.77 0 0 0 1,4.27 11.66,11.66 0 0 0 3,3.46 20.26,20.26 0 0 0 4.29,2.55 c 1.31,0.6 2.57,1.24 3.78,1.9 a 21,21 0 0 1 3.15,2.1 3.23,3.23 0 0 1 1.33,2.56 v 0.12 a 2.62,2.62 0 0 1 -1.76,2.52 8.83,8.83 0 0 1 -3.42,0.7 h -0.27 a 11.51,11.51 0 0 1 -5,-1.29 8,8 0 0 1 -2.42,-1.66 l -3.6,6.71 a 11.14,11.14 0 0 0 2.55,1.7 18.78,18.78 0 0 0 8.29,2.08 h 0.61 a 16.74,16.74 0 0 0 6.36,-1.2 12.6,12.6 0 0 0 5.17,-3.72 9.55,9.55 0 0 0 2.1,-5.86 v -0.27 a 9.63,9.63 0 0 0 -1,-4.45 11.92,11.92 0 0 0 -3.24,-3.81 z m 35.44,18.71 V 39.04 l 17.65,21.08 h 4.85 V 22.63 h -7.5 v 24.1 l -18.66,-24.1 h -3.84 v 37.49 z m -88.67,0.01 h 26.25 v -7.5 h -18.75 v -7.5 h 18.75 v -7.5 h -26.25 z m -1e-5,-37.500001 h 26.25 v 7.5 h -26.25 z M 124.77,41.84 a 10.83,10.83 0 0 0 3.29,-8 11.25,11.25 0 0 0 -11.25,-11.25 H 98.06 v 7.5 h 18.75 a 3.75,3.75 0 1 1 0,7.5 H 98.06 v 22.5 h 7.5 V 46.07 l 12.66,14.06 h 9.84 l -13.12,-15 h 1.87 a 10.83,10.83 0 0 0 7.96,-3.29 z" />
      <rect
         class="cls-1"
         x="198.07001"
         y="22.629999"
         width="7.5"
         height="37.5"
         id="rect2"
         style="display:inline;fill:#ffffff" />
      <path
         id="polygon8"
         style="fill:#f07e19"
         class="cls-2"
         d="M 40.85,18.14 22.03,7.27 15.73,10.9 34.55,21.77 Z M 34.61,0 28.31,3.64 53.49,18.17 34.62,29.07 9.44,14.53 3.15,18.17 34.61,36.34 66.08,18.17 Z m 15.74,71.19 6.29,-3.63 V 45.83 l -6.29,3.63 z M 37.76,42.13 v 36.33 l 6.29,-3.63 V 45.76 l 18.89,-10.9 -0.02,29.07 6.31,-3.64 V 23.96 Z m -25.17,25.43 6.29,3.63 V 49.46 L 12.59,45.83 Z M 0,60.29 6.3,63.93 6.29,34.86 25.17,45.76 v 29.07 l 6.3,3.63 V 42.13 L 0,23.96 Z" />
    </g>
  </g>
</svg>
